<svg xmlns="http://www.w3.org/2000/svg" width="454.98" height="512.001" viewBox="0 0 454.98 512.001">
  <path id="C_" data-name="C++" d="M435.279,113.284,247.191,4.692c-10.835-6.257-28.567-6.257-39.4,0L19.7,113.284C8.865,119.539,0,134.9,0,147.408V364.593a43.122,43.122,0,0,0,19.7,34.124L207.789,507.309c10.835,6.257,28.567,6.257,39.4,0L435.279,398.717c12.248-8.146,19.219-20.408,19.7-34.124V147.408C454.54,134.243,446.657,120.965,435.279,113.284ZM75.83,256c-.891-148.089,197.459-213.479,283-75.878L293.192,218.1C253.57,152.57,155.191,176,151.66,256c1.06,73.729,97.754,107.978,141.536,37.893l65.635,37.978C283.448,462.735,79.632,415.653,75.83,256Zm303.32,8.424H362.3v16.852H345.449V264.425H328.6V247.574h16.852V230.724H362.3v16.851H379.15Zm63.192,0H425.49v16.852H408.641V264.425H391.789V247.574h16.852V230.724H425.49v16.851h16.852Z" fill="#0a59f7"/>
</svg>
