<svg xmlns="http://www.w3.org/2000/svg" width="100" height="100" viewBox="0 0 100 100">
  <g id="github" transform="translate(1159.29 -1662.92)">
    <path id="Path_9" data-name="Path 9" d="M-1109.29,1662.92c-27.612,0-50,22.951-50,51.264,0,22.073,13.774,41.668,34.2,48.648,2.5.474,3.415-1.115,3.415-2.468,0-1.222-.047-5.262-.067-9.546-13.91,3.1-16.849-6.049-16.849-6.049-2.274-5.926-5.552-7.493-5.552-7.493-4.537-3.183.341-3.122.341-3.122a10.5,10.5,0,0,1,7.666,5.283c4.466,7.837,11.7,5.572,14.549,4.261a11.031,11.031,0,0,1,3.175-6.856c-11.106-1.3-22.781-5.692-22.781-25.335a20.127,20.127,0,0,1,5.152-13.76,18.852,18.852,0,0,1,.485-13.567s4.2-1.378,13.754,5.255a46.822,46.822,0,0,1,12.515-1.725,46.941,46.941,0,0,1,12.525,1.725c9.541-6.634,13.735-5.256,13.735-5.256a18.834,18.834,0,0,1,.491,13.567,20.087,20.087,0,0,1,5.146,13.761c0,19.69-11.7,24.026-22.83,25.3a12.432,12.432,0,0,1,3.39,9.493c0,6.869-.057,12.381-.057,14.069,0,1.366.9,2.964,3.435,2.461,20.408-6.989,34.169-26.579,34.166-48.64,0-28.32-22.391-51.273-50.006-51.265Z" fill="#8892b0" fill-rule="evenodd"/>
    <path id="Path_10" data-name="Path 10" d="M-1149.96,1698.28c-.054.123-.247.159-.422.075s-.279-.247-.221-.37a.313.313,0,0,1,.424-.077c.178.084.279.252.219.372Zm-.3-.23" fill="#8892b0"/>
    <path id="Path_11" data-name="Path 11" d="M-1148.96,1699.39c-.117.109-.347.058-.5-.114a.376.376,0,0,1-.072-.512c.121-.109.344-.058.5.114a.376.376,0,0,1,.07.512Zm-.24-.25" fill="#8892b0"/>
    <path id="Path_12" data-name="Path 12" d="M-1147.99,1700.81c-.151.1-.4.007-.551-.212s-.151-.482,0-.587.4-.01.551.207a.444.444,0,0,1,0,.593Zm0,0" fill="#8892b0"/>
    <path id="Path_13" data-name="Path 13" d="M-1146.66,1702.18c-.135.149-.423.109-.633-.094a.474.474,0,0,1-.14-.629c.137-.149.426-.107.638.094s.275.479.135.629Zm0,0" fill="#8892b0"/>
    <path id="Path_14" data-name="Path 14" d="M-1144.83,1702.98c-.06.193-.337.28-.615.2s-.461-.31-.4-.505.336-.286.617-.2.463.3.4.5Zm0,0" fill="#8892b0"/>
    <path id="Path_15" data-name="Path 15" d="M-1142.81,1703.12c.007.2-.23.372-.523.375s-.533-.158-.536-.358.231-.372.526-.377.533.159.533.359Zm0,0" fill="#8892b0"/>
    <path id="Path_16" data-name="Path 16" d="M-1140.94,1702.81c.035.2-.169.4-.459.456s-.55-.07-.587-.266.172-.407.457-.459.559.06.589.27Zm0,0" fill="#8892b0"/>
  </g>
</svg>
