<svg id="instagram" xmlns="http://www.w3.org/2000/svg" width="100" height="100" viewBox="0 0 100 100">
  <path id="Path_26" data-name="Path 26" d="M50,0C36.421,0,34.718.058,29.385.3A36.7,36.7,0,0,0,17.248,2.625,24.507,24.507,0,0,0,8.392,8.392a24.507,24.507,0,0,0-5.767,8.856A36.694,36.694,0,0,0,.3,29.385C.057,34.718,0,36.421,0,50S.057,65.282.3,70.615A36.694,36.694,0,0,0,2.625,82.752a24.511,24.511,0,0,0,5.767,8.856,24.509,24.509,0,0,0,8.856,5.767A36.7,36.7,0,0,0,29.385,99.7c5.333.243,7.036.3,20.615.3s15.282-.058,20.615-.3a36.7,36.7,0,0,0,12.137-2.324A25.565,25.565,0,0,0,97.375,82.752,36.7,36.7,0,0,0,99.7,70.615c.243-5.333.3-7.036.3-20.615s-.058-15.282-.3-20.615a36.7,36.7,0,0,0-2.324-12.137,24.509,24.509,0,0,0-5.767-8.856,24.511,24.511,0,0,0-8.856-5.767A36.694,36.694,0,0,0,70.615.3C65.282.058,63.579,0,50,0Zm0,9.009c13.35,0,14.932.051,20.2.291a27.672,27.672,0,0,1,9.284,1.721,15.492,15.492,0,0,1,5.749,3.74,15.491,15.491,0,0,1,3.74,5.749A27.665,27.665,0,0,1,90.7,29.8c.24,5.272.291,6.854.291,20.2S90.94,64.932,90.7,70.2a27.665,27.665,0,0,1-1.722,9.284,16.559,16.559,0,0,1-9.489,9.489A27.662,27.662,0,0,1,70.2,90.7c-5.272.241-6.853.292-20.2.292S35.068,90.94,29.8,90.7a27.662,27.662,0,0,1-9.284-1.721,15.492,15.492,0,0,1-5.749-3.74,15.489,15.489,0,0,1-3.74-5.749A27.666,27.666,0,0,1,9.3,70.2c-.241-5.272-.291-6.854-.291-20.2S9.06,35.068,9.3,29.8a27.666,27.666,0,0,1,1.722-9.284,15.491,15.491,0,0,1,3.74-5.749,15.5,15.5,0,0,1,5.749-3.74A27.672,27.672,0,0,1,29.8,9.3c5.272-.241,6.854-.291,20.2-.291Z" fill="#8892b0"/>
  <path id="Path_27" data-name="Path 27" d="M149.54,165.768a16.228,16.228,0,1,1,16.228-16.228A16.228,16.228,0,0,1,149.54,165.768Zm0-41.228a25,25,0,1,0,25,25A25,25,0,0,0,149.54,124.54Z" transform="translate(-99.54 -99.54)" fill="#8892b0"/>
  <path id="Path_28" data-name="Path 28" d="M371.932,93.627a5,5,0,1,1-5-5A5,5,0,0,1,371.932,93.627Z" transform="translate(-291.932 -73.627)" fill="#8892b0"/>
</svg>
