<svg xmlns="http://www.w3.org/2000/svg" width="100" height="100" viewBox="0 0 100 100">
  <path id="linkedin" d="M91.889,3H14.111A11.108,11.108,0,0,0,3,14.111V91.889A11.108,11.108,0,0,0,14.111,103H91.889A11.108,11.108,0,0,0,103,91.889V14.111A11.108,11.108,0,0,0,91.889,3ZM36.333,80.778H22.317V41.889H36.333ZM29.078,34.761c-4.283,0-7.144-2.856-7.144-6.667s2.856-6.667,7.617-6.667c4.283,0,7.144,2.856,7.144,6.667S33.839,34.761,29.078,34.761ZM86.333,80.778H72.767V59.522c0-5.878-3.617-7.233-4.972-7.233s-5.878.906-5.878,7.233V80.778H47.9V41.889H61.917v5.428c1.806-3.167,5.422-5.428,12.206-5.428s12.211,5.428,12.211,17.633Z" transform="translate(-3 -3)" fill="#8892b0"/>
</svg>
