<svg xmlns="http://www.w3.org/2000/svg" width="120" height="100" viewBox="0 0 120 100">
  <g id="twitter" transform="translate(0 -47.987)">
    <rect id="Rectangle_3" data-name="Rectangle 3" height="83.974" transform="translate(67.2 56)" fill="none"/>
    <path id="Path_29" data-name="Path 29" d="M37.738,147.987c45.283,0,70.051-38.476,70.051-71.843,0-1.093,0-2.181-.072-3.264A50.825,50.825,0,0,0,120,59.811a48.2,48.2,0,0,1-14.141,3.973,25.239,25.239,0,0,0,10.824-13.966,48.607,48.607,0,0,1-15.634,6.129A24.367,24.367,0,0,0,83.1,47.987c-13.519,0-24.643,11.409-24.643,25.273a25.908,25.908,0,0,0,.638,5.714A69.361,69.361,0,0,1,8.352,52.594,25.769,25.769,0,0,0,15.974,86.3,23.972,23.972,0,0,1,4.8,83.139v.32a25.184,25.184,0,0,0,19.752,24.752,23.991,23.991,0,0,1-11.117.433,24.783,24.783,0,0,0,23,17.535,48.634,48.634,0,0,1-30.576,10.83A48.851,48.851,0,0,1,0,136.645a68.446,68.446,0,0,0,37.738,11.322" fill="#8892b0"/>
  </g>
</svg>
